HIERARCHY
ROOT Hips
{
	OFFSET 0.000000 0.000000 0.000000 
	CHANNELS 6 Xposition Yposition Zposition Yrotation Zrotation Xrotation 
	JOINT Lumbar
	{
		OFFSET 0.000000 0.000000 0.000000 
		CHANNELS 3 Zrotation Xrotation Yrotation
		JOINT Neck
		{
			OFFSET 0.000000 0.445665 0.000000 
			CHANNELS 3 Zrotation Xrotation Yrotation
			End Site
			{
				OFFSET 0.000000 0.227535 0.000000 
			}
		}
		JOINT RightShoulder
		{
			OFFSET 0.019635 0.377685 0.194865 
			CHANNELS 3 Zrotation Xrotation Yrotation
			JOINT RightElbow
			{
				OFFSET 0.000000 -0.243375 0.000000 
				CHANNELS 2 Zrotation Yrotation
				JOINT RightWrist
				{
					OFFSET 0.000000 -0.264825 0.000000 
					CHANNELS 2 Zrotation Xrotation
					End Site
					{
						OFFSET 0.006600 -0.176220 0.000990 
					}
				}
			}
		}
		JOINT LeftShoulder
		{
			OFFSET 0.019635 0.377685 -0.194865 
			CHANNELS 3 Zrotation Xrotation Yrotation
			JOINT LeftElbow
			{
				OFFSET 0.000000 -0.243375 0.000000 
				CHANNELS 2 Zrotation Yrotation
				JOINT LeftWrist
				{
					OFFSET 0.000000 -0.264825 0.000000 
					CHANNELS 2 Zrotation Xrotation
					End Site
					{
						OFFSET 0.006600 -0.176220 -0.000990 
					}
				}
			}
		}
	}
	JOINT RightHip
	{
		OFFSET 0.052140 -0.069960 0.075570 
		CHANNELS 3 Zrotation Xrotation Yrotation
		JOINT RightKnee
		{
			OFFSET 0.000000 -0.402270 0.000000 
			CHANNELS 1 Zrotation
			JOINT RightAnkle
			{
				OFFSET 0.000000 -0.404085 0.000000 
				CHANNELS 3 Zrotation Xrotation Yrotation
				End Site
				{
					OFFSET 0.204105 -0.089430 0.008415 
				}
			}
		}
	}
	JOINT LeftHip
	{
		OFFSET 0.052140 -0.069960 -0.075570 
		CHANNELS 3 Zrotation Xrotation Yrotation
		JOINT LeftKnee
		{
			OFFSET 0.000000 -0.402270 0.000000 
			CHANNELS 1 Zrotation
			JOINT LeftAnkle
			{
				OFFSET 0.000000 -0.404085 0.000000 
				CHANNELS 3 Zrotation Xrotation Yrotation
				End Site
				{
					OFFSET 0.204105 -0.089430 -0.008415 
				}
			}
		}
	}
}
MOTION
Frames: 34
Frame Time: 0.02
1e-05 4e-05 -0.0001 -179.83656 -33.43485 -3.5432 42.48885 2.80161 -3.60434 -11.07224 -2.32896 -1.04156 90.72481 -99.11446 55.63377 5.78708 105.41544 9.90375 3.92721 36.79255 108.95718 -55.63472 8.87544 -87.91833 7.85627 0.90565 37.90634 -2.92317 -5.8671 -22.34515 -6.76218 -2.4599 -3.42237 41.44033 9.42616 2.82233 -27.82407 -6.52013 2.32501 3.3466
5e-05 4e-05 -5e-05 -179.81112 -33.38615 -3.5349 42.42825 2.80507 -3.60678 -11.07324 -2.32851 -1.04215 90.84375 -99.07959 55.63377 5.78708 105.41809 9.89018 3.94225 36.87503 108.90637 -55.63457 8.87503 -87.92285 7.85094 0.89395 37.84594 -2.96795 -6.05678 -22.3403 -6.75881 -2.44061 -3.41342 41.38999 9.43763 2.90969 -27.8189 -6.51855 2.31206 3.34148
0.0001 3e-05 0 -179.78574 -33.33761 -3.52661 42.36784 2.80851 -3.60922 -11.07424 -2.32805 -1.04274 90.96238 -99.04482 55.63377 5.78708 105.42071 9.87663 3.95725 36.95727 108.85569 -55.63442 8.87464 -87.92735 7.84561 0.88228 37.78572 -3.01265 -6.2461 -22.33548 -6.75544 -2.42136 -3.40449 41.33982 9.4491 2.99692 -27.81375 -6.51697 2.29913 3.33637
0.00014 3e-05 5e-05 -179.76037 -33.28907 -3.51833 42.30743 2.81196 -3.61166 -11.07524 -2.3276 -1.04333 91.08095 -99.01005 55.63377 5.78707 105.42334 9.8631 3.97224 37.0395 108.80502 -55.63428 8.87423 -87.93185 7.8403 0.87061 37.7255 -3.0573 -6.43522 -22.33065 -6.75208 -2.40213 -3.39556 41.28964 9.46054 3.08403 -27.80859 -6.51539 2.28621 3.33127
0.00019 2e-05 0.0001 -179.73497 -33.24036 -3.51004 42.24684 2.81543 -3.6141 -11.07623 -2.32716 -1.04392 91.19983 -98.97518 55.63377 5.78707 105.42601 9.84954 3.98728 37.12197 108.75424 -55.63413 8.8738 -87.93635 7.83501 0.85891 37.66509 -3.10202 -6.62464 -22.32579 -6.74872 -2.38286 -3.38662 41.23928 9.47198 3.17123 -27.80342 -6.51381 2.27327 3.32616
0.00023 2e-05 0.00015 -179.70961 -33.19218 -3.50177 42.18679 2.81881 -3.61653 -11.07726 -2.32668 -1.04451 91.31795 -98.94061 55.63377 5.78707 105.42852 9.83601 4.0022 37.20373 108.70378 -55.63398 8.8735 -87.94088 7.8296 0.8473 37.6053 -3.14664 -6.81376 -22.32104 -6.74536 -2.36366 -3.37771 41.1895 9.4835 3.25852 -27.7983 -6.51223 2.26036 3.32105
0.00027 2e-05 0.0002 -179.68419 -33.14298 -3.49346 42.12573 2.82238 -3.619 -11.07822 -2.32627 -1.0451 91.43741 -98.90547 55.63377 5.78707 105.43135 9.82245 4.01733 37.28681 108.65272 -55.63383 8.87291 -87.94534 7.82445 0.83553 37.54433 -3.19141 -7.00318 -22.31607 -6.74199 -2.34434 -3.36875 41.13861 9.49483 3.34553 -27.79309 -6.51064 2.24741 3.31595
0.00032 1e-05 0.00025 -179.65884 -33.09473 -3.48519 42.06559 2.82577 -3.62141 -11.07923 -2.3258 -1.04569 91.55574 -98.87086 55.63377 5.78707 105.4339 9.8089 4.03228 37.36869 108.60221 -55.63369 8.87263 -87.94986 7.81901 0.82391 37.48443 -3.23607 -7.19248 -22.31131 -6.73863 -2.32512 -3.35983 41.08875 9.50635 3.4328 -27.78796 -6.50907 2.23449 3.31084
0.00036 1e-05 0.0003 -179.6335 -33.04761 -3.47696 42.00661 2.82895 -3.62383 -11.08033 -2.32526 -1.04627 91.67231 -98.83687 55.63377 5.78707 105.43604 9.7954 4.04695 37.44908 108.55236 -55.63353 8.87259 -87.95448 7.8134 0.81245 37.42587 -3.28052 -7.38114 -22.30681 -6.73531 -2.30607 -3.35097 41.04012 9.51808 3.52043 -27.78292 -6.50751 2.22161 3.30569
0.0004 0 0.00036 -179.6079 -32.9939 -3.46844 41.94103 2.83335 -3.62641 -11.081 -2.32511 -1.04689 91.79787 -98.79925 55.63379 5.78705 105.4403 9.78175 4.06308 37.53799 108.49869 -55.63342 8.87076 -87.95861 7.80932 0.79999 37.35969 -3.32593 -7.57201 -22.30083 -6.73181 -2.28619 -3.34182 40.98433 9.52853 3.6061 -27.77734 -6.50585 2.20854 3.30071
0.00045 0 0.0004 -179.58297 -32.95412 -3.4606 41.88935 2.83519 -3.62855 -11.08255 -2.32415 -1.04744 91.90519 -98.76933 55.63375 5.78707 105.44025 9.76834 4.0762 37.60894 108.45308 -55.63321 8.87295 -87.96371 7.80169 0.78967 37.30956 -3.36946 -7.75911 -22.29792 -6.72868 -2.26796 -3.33323 40.94369 9.54171 3.69583 -27.77293 -6.5044 2.19585 3.2954
0.0005 -0 0.00037 -179.55872 -32.95281 -3.45411 41.8765 2.8298 -3.63042 -11.08681 -2.32078 -1.04782 91.95523 -98.7603 55.63353 5.78716 105.42705 9.75631 4.08033 37.63043 108.42969 -55.63269 8.88436 -87.97202 7.78665 0.78521 37.30395 -3.40669 -7.92812 -22.3039 -6.72658 -2.25527 -3.32672 40.94464 9.56228 3.79761 -27.77139 -6.50354 2.18414 3.28904
0.00055 -0 0.00032 -179.53535 -32.96544 -3.44839 41.87749 2.82191 -3.63168 -11.09192 -2.31663 -1.04815 91.98776 -98.75903 55.63326 5.78729 105.40973 9.74443 4.0815 37.63408 108.41435 -55.63208 8.90019 -87.9812 7.76761 0.78289 37.31437 -3.44221 -8.09442 -22.31286 -6.72485 -2.2441 -3.32071 40.96079 9.58558 3.9033 -27.77108 -6.50288 2.17282 3.28238
0.0006 -1e-05 0.00029 -179.51234 -32.97152 -3.44264 41.8717 2.81531 -3.63259 -11.09645 -2.31296 -1.0485 92.0337 -98.75438 55.63302 5.78739 105.3952 9.73197 4.08459 37.64582 108.39529 -55.63154 8.91514 -87.98963 7.74886 0.77964 37.31711 -3.47934 -8.26749 -22.32014 -6.72292 -2.23155 -3.31411 40.96998 9.60776 4.0066 -27.77046 -6.50212 2.16136 3.27593
0.00066 -1e-05 0.00025 -179.48616 -32.97852 -3.43556 41.868 2.808 -3.63612 -11.10175 -2.30877 -1.04884 92.05878 -98.74916 55.63272 5.78752 105.37693 9.72152 4.08555 37.65699 108.37658 -55.63085 8.92514 -87.99957 7.73653 0.77626 37.32151 -3.51313 -8.41868 -22.32882 -6.72111 -2.22176 -3.30897 40.97948 9.62956 4.1125 -27.76883 -6.50139 2.14973 3.26916
0.00071 -1e-05 0.00021 -179.46676 -32.98693 -3.4314 41.86324 2.80162 -3.63409 -11.10571 -2.30547 -1.0492 92.12043 -98.74694 55.63254 5.7876 105.36528 9.7071 4.08988 37.6659 108.35894 -55.63047 8.94672 -88.00657 7.70991 0.77357 37.32631 -3.55325 -8.6129 -22.33526 -6.71914 -2.20674 -3.30101 40.99188 9.65265 4.2139 -27.76956 -6.50065 2.13857 3.26299
0.00074 -2e-05 0.00018 -179.4659 -32.99557 -3.43558 41.85191 2.79806 -3.61642 -11.10536 -2.30485 -1.04962 92.31103 -98.75143 55.63272 5.78752 105.37465 9.68 4.10735 37.66615 108.34333 -55.63101 8.99757 -88.00517 7.64428 0.77301 37.32784 -3.61321 -8.94303 -22.33493 -6.7165 -2.17552 -3.28428 41.00891 9.67983 4.30136 -27.7769 -6.49982 2.12853 3.25855
0.00077 -3e-05 0.00015 -179.47183 -33.0052 -3.44262 41.83909 2.79558 -3.59323 -11.10369 -2.30512 -1.05007 92.53489 -98.75861 55.63302 5.78739 105.39048 9.64916 4.12772 37.66592 108.32837 -55.63185 9.06028 -88.00076 7.56435 0.77294 37.32933 -3.67924 -9.31357 -22.33222 -6.71371 -2.13922 -3.26485 41.0283 9.70786 4.38373 -27.78651 -6.49899 2.11902 3.25475
0.0008 -4e-05 0.00013 -179.47459 -33.01447 -3.44806 41.82706 2.79288 -3.57284 -11.10289 -2.305 -1.0505 92.72765 -98.76432 55.63326 5.78728 105.40226 9.62122 4.14476 37.67052 108.31237 -55.63253 9.11857 -87.99776 7.4915 0.77211 37.33109 -3.7412 -9.65472 -22.33051 -6.71108 -2.10616 -3.24725 41.0463 9.73485 4.46947 -27.79483 -6.49817 2.10927 3.25063
0.00083 -5e-05 8e-05 -179.47765 -33.02375 -3.45477 41.81488 2.78901 -3.55122 -11.10102 -2.30492 -1.05095 92.98618 -98.77132 55.63353 5.78716 105.41867 9.58849 4.17028 37.65549 108.2996 -55.63332 9.17271 -87.99467 7.41669 0.77355 37.33222 -3.80861 -10.04198 -22.32925 -6.70808 -2.06925 -3.22715 41.06598 9.76521 4.55308 -27.80427 -6.4973 2.09934 3.24654
0.00086 -6e-05 0.0001 -179.48176 -33.03322 -3.45953 41.80266 2.78779 -3.53085 -11.10101 -2.30484 -1.05137 93.11721 -98.77623 55.63376 5.78706 105.42693 9.56452 4.17877 37.68089 108.28039 -55.63395 9.2385 -87.99098 7.34182 0.77043 37.33461 -3.86618 -10.34327 -22.32645 -6.7058 -2.03907 -3.21156 41.08276 9.78806 4.63712 -27.81191 -6.49654 2.09017 3.24267
0.00086 -5e-05 0.00034 -179.48665 -33.04146 -3.45783 41.78922 2.79434 -3.51534 -11.10689 -2.3056 -1.05167 92.8765 -98.77384 55.63386 5.78702 105.41107 9.56833 4.14023 37.8232 108.24111 -55.63405 9.33182 -87.98694 7.27681 0.75378 37.3389 -3.8945 -10.39305 -22.31999 -6.7055 -2.02932 -3.20946 41.08895 9.79579 4.7482 -27.81401 -6.49586 2.08039 3.23799
0.00085 -4e-05 0.00066 -179.4925 -33.05006 -3.45413 41.77599 2.80342 -3.50124 -11.11463 -2.30614 -1.05195 92.50865 -98.76927 55.63391 5.78701 105.38618 9.58049 4.08428 38.00551 108.19571 -55.63396 9.43694 -87.9823 7.21086 0.73265 37.34467 -3.91277 -10.35548 -22.31204 -6.70595 -2.02643 -3.21193 41.09242 9.795 4.856 -27.81422 -6.49532 2.07176 3.23372
0.00084 -2e-05 0.00094 -179.49813 -33.05946 -3.45157 41.76356 2.81089 -3.48652 -11.12119 -2.3061 -1.05226 92.20659 -98.76631 55.63398 5.78696 105.36625 9.5872 4.03592 38.16601 108.15438 -55.63401 9.53755 -87.97758 7.1413 0.71409 37.35071 -3.93607 -10.36097 -22.30478 -6.7061 -2.01995 -3.21203 41.09844 9.79405 4.94826 -27.81529 -6.49485 2.06436 3.23013
0.00084 -1e-05 0.00123 -179.50283 -33.06494 -3.44809 41.74731 2.82028 -3.4717 -11.12902 -2.30897 -1.05246 91.87158 -98.7612 55.63405 5.78693 105.34548 9.60116 3.98921 38.34113 108.10746 -55.63399 9.6342 -87.97426 7.08901 0.69329 37.35278 -3.95782 -10.35462 -22.29741 -6.70609 -2.01515 -3.2132 41.09918 9.80943 5.10933 -27.81642 -6.49384 2.04985 3.22305
0.00082 0 0.00153 -179.50995 -33.07855 -3.44606 41.73905 2.82631 -3.45727 -11.13481 -2.30573 -1.05289 91.5749 -98.75957 55.63411 5.78697 105.32103 9.60159 3.93462 38.49619 108.07095 -55.63387 9.74271 -87.96789 6.99978 0.67608 37.36345 -3.9801 -10.35046 -22.28994 -6.70659 -2.0087 -3.21332 41.11002 9.78966 5.13 -27.81699 -6.49396 2.05005 3.22315
0.0008 3e-05 0.00187 -179.52052 -33.11536 -3.4481 41.75303 2.82196 -3.44554 -11.13322 -2.28541 -1.05393 91.4106 -98.77183 55.63412 5.78678 105.31606 9.56662 3.86431 38.57877 108.0627 -55.63423 9.873 -87.95337 6.81697 0.67011 37.39755 -4.00823 -10.38442 -22.28272 -6.70833 -1.99466 -3.20885 41.15118 9.66722 4.73252 -27.81615 -6.49753 2.09369 3.24445
0.00077 5e-05 0.00223 -179.53398 -33.16015 -3.45171 41.77498 2.8142 -3.43389 -11.12981 -2.25902 -1.0552 91.28882 -98.78689 55.63411 5.78709 105.30261 9.51712 3.78599 38.64127 108.06549 -55.63365 10.01641 -87.93579 6.59576 0.66789 37.44019 -4.03694 -10.42182 -22.27545 -6.71056 -1.97895 -3.20326 41.20223 9.51113 4.19978 -27.81488 -6.50216 2.15152 3.27266
0.00074 8e-05 0.00259 -179.54811 -33.20077 -3.45486 41.79317 2.80831 -3.42083 -11.12802 -2.23554 -1.05636 91.15185 -98.79829 55.63411 5.78697 105.27491 9.47153 3.71052 38.71762 108.06458 -55.63393 10.15887 -87.91956 6.38653 0.66373 37.47897 -4.06394 -10.44985 -22.26812 -6.71257 -1.96496 -3.1986 41.24766 9.37548 3.74945 -27.81404 -6.50605 2.20083 3.29672
0.00072 0.00011 0.00294 -179.55409 -33.24385 -3.45693 41.81206 2.80119 -3.41328 -11.12275 -2.21133 -1.05752 90.99767 -98.81999 55.63411 5.78623 105.32301 9.4372 3.63902 38.77494 108.058 -55.6353 10.28001 -87.90348 6.19948 0.66024 37.51795 -4.09629 -10.50601 -22.26105 -6.71458 -1.94732 -3.1924 41.29792 9.21779 3.2104 -27.81216 -6.51102 2.25892 3.32507
0.00068 0.00013 0.0033 -179.5775 -33.28349 -3.46157 41.83126 2.79574 -3.39465 -11.1245 -2.1873 -1.05875 90.88523 -98.8206 55.63411 5.78872 105.21173 9.37635 3.55603 38.86723 108.06579 -55.63053 10.44922 -87.88637 5.95824 0.65653 37.5582 -4.11827 -10.5078 -22.2535 -6.71671 -1.93658 -3.18898 41.34027 9.09811 2.82427 -27.81234 -6.51401 2.30211 3.34611
0.00061 0.00013 0.00367 -179.65033 -33.3133 -3.47377 41.85021 2.79614 -3.34203 -11.14399 -2.1644 -1.06017 90.92709 -98.76495 55.63406 5.78467 104.65656 9.24106 3.45695 39.05562 108.11161 -55.63858 10.74196 -87.86717 5.56731 0.64952 37.60244 -4.10712 -10.3391 -22.2443 -6.71906 -1.94715 -3.19448 41.36008 9.09186 2.89203 -27.81856 -6.51115 2.30045 3.34528
0.00053 0.00012 0.00406 -179.7402 -33.33894 -3.48836 41.8689 2.79824 -3.27888 -11.17096 -2.14202 -1.06166 91.00001 -98.68746 55.63398 5.78689 103.94085 9.08018 3.34431 39.28069 108.17112 -55.63387 11.08376 -87.84703 5.12511 0.64252 37.64701 -4.08632 -10.11934 -22.23468 -6.72149 -1.96436 -3.20263 41.37111 9.12503 3.1187 -27.82682 -6.5063 2.28331 3.33682
0.00045 0.00012 0.00444 -179.82099 -33.36564 -3.50132 41.88737 2.79932 -3.22276 -11.19589 -2.12001 -1.06309 91.02803 -98.61828 55.63401 5.79602 103.30448 8.93437 3.22872 39.4923 108.22398 -55.61702 11.40682 -87.82737 4.71231 0.63671 37.68996 -4.07291 -9.93659 -22.22554 -6.72386 -1.97724 -3.20889 41.38529 9.14004 3.27357 -27.83402 -6.50246 2.27347 3.33185
